<svg xmlns="http://www.w3.org/2000/svg" xmlns:svgjs="http://svgjs.com/svgjs" xmlns:xlink="http://www.w3.org/1999/xlink" width="512" height="512" version="1.1"><svg xmlns="http://www.w3.org/2000/svg" xmlns:xlink="http://www.w3.org/1999/xlink" id="SvgjsSvg1000" x="0" y="0" version="1.1" viewBox="0 0 512 512" xml:space="preserve" style="enable-background:new 0 0 512 512"><g><path d="M480,128c0-17.672-14.328-32-32-32h-32c-17.672,0-32,14.328-32,32h-16l-23.156-46.313 C339.422,70.848,328.344,64,316.219,64H195.781c-12.125,0-23.203,6.848-28.625,17.688L144,128H32c-17.672,0-32,14.328-32,32v256 c0,17.672,14.328,32,32,32h448c17.672,0,32-14.328,32-32V160C512,142.328,497.672,128,480,128z M256,400 c-61.859,0-112-50.145-112-112s50.141-112,112-112s112,50.145,112,112S317.859,400,256,400z"/><circle cx="256" cy="288" r="64"/></g></svg><style>@media (prefers-color-scheme:light){:root{filter:none}}@media (prefers-color-scheme:dark){:root{filter:invert(100%)}}</style></svg>