<svg xmlns="http://www.w3.org/2000/svg" width="933.333" height="933.333" preserveAspectRatio="xMidYMid meet" version="1.0" viewBox="0 0 700 700"><metadata>Created by potrace 1.14, written by Peter Selinger 2001-2017</metadata><g fill="#000" stroke="none"><path d="M2637 6123 c-1 0 -18 -4 -37 -7 -106 -16 -217 -85 -278 -173 -12 -17 -97 -180 -188 -362 l-165 -331 -792 0 c-629 0 -802 -3 -842 -14 -81 -21 -155 -65 -210 -122 -46 -48 -62 -73 -106 -169 -12 -25 -14 -329 -17 -1844 -1 -1178 1 -1834 8 -1869 31 -171 169 -311 340 -347 40 -8 882 -11 3165 -10 2964 1 3113 2 3170 19 81 24 133 57 193 120 58 61 95 129 111 204 14 69 15 3626 1 3689 -27 118 -125 245 -225 292 -57 27 -138 51 -175 51 -24 0 -26 5 -37 70 -6 38 -23 95 -38 126 -33 68 -118 155 -183 188 -98 50 -140 54 -450 52 -265 -3 -291 -5 -341 -24 -153 -60 -256 -184 -283 -340 l-12 -72 -108 0 -107 0 -166 333 c-92 182 -177 346 -189 362 -67 87 -173 156 -266 171 -36 6 -1767 13 -1773 7z m1018 -1538 c43 -3 82 -8 85 -10 3 -2 26 -6 50 -10 179 -26 446 -142 613 -268 330 -248 534 -577 605 -977 17 -93 20 -147 17 -280 -3 -183 -5 -202 -40 -345 -92 -377 -326 -705 -655 -918 -260 -168 -539 -247 -853 -242 -159 3 -195 7 -317 36 -233 54 -456 163 -630 307 -164 137 -324 342 -414 532 -39 84 -82 196 -91 240 -2 8 -9 38 -15 65 -6 28 -14 59 -16 70 -14 64 -19 139 -18 295 0 143 4 195 23 285 67 317 225 601 455 814 21 20 44 41 50 47 23 21 146 114 151 114 4 0 26 14 51 30 158 110 462 206 684 217 58 3 106 6 107 7 3 2 71 -2 158 -9z" transform="translate(0.000000,700.000000) scale(0.100000,-0.100000)"/><path d="M3390 3930 c-124 -20 -196 -42 -291 -90 -241 -123 -427 -382 -465 -648 -11 -72 -8 -220 5 -287 16 -81 59 -201 89 -250 14 -22 24 -41 23 -43 -7 -8 104 -144 153 -189 350 -321 875 -312 1210 21 84 82 122 136 171 238 242 502 -36 1095 -575 1229 -89 22 -242 31 -320 19z" transform="translate(0.000000,700.000000) scale(0.100000,-0.100000)"/></g></svg>